# xmcd
#
# Track frame offsets: 
#        182
#        12440
#        25237
#        36992
#        48425
#        62400
#        76627
#        91435
#        106055
#        119320
#        132677
#        144415
#        156400
#        171172
#        183710
#        197002
#
# Disc length: 2757 seconds
#
# Revision: 5
# Processed by: cddbd v1.5.2PL0 Copyright (c) Steve Scherf et al.
# Submitted via: ExactAudioCopyFreeDBPlugin 1.0
#
DISCID=d80ac310
DTITLE=Ray Charles - The Very Best Of Ray Charles, Volume II
DYEAR=2000
DGENRE=Soul
TTITLE0=It Should've Been Me
TTITLE1=Greenbacks
TTITLE2=Lonely Avenue
TTITLE3=This Little Girl Of Mine
TTITLE4=Come Back Baby
TTITLE5=Hide 'Nor Hair
TTITLE6=Born To Lose
TTITLE7=You Don't Know Me
TTITLE8=Take These Chains From My Heart
TTITLE9=Crying Time
TTITLE10=Don't Set Me Free
TTITLE11=Together Again
TTITLE12=Here We Go Again
TTITLE13=Yesterday
TTITLE14=Eleanor Rigby
TTITLE15=We Didn't See A Thing
EXTD=
EXTT0=
EXTT1=
EXTT2=
EXTT3=
EXTT4=
EXTT5=
EXTT6=
EXTT7=
EXTT8=
EXTT9=
EXTT10=
EXTT11=
EXTT12=
EXTT13=
EXTT14=
EXTT15=
PLAYORDER=
